<svg xmlns="http://www.w3.org/2000/svg" viewBox="0 0 28 25"><defs><style>.a{fill:#fff;}.b{fill:#f8b600;}</style></defs><g transform="translate(-12 -365)"><rect class="a" width="28" height="25" transform="translate(12 365)"/><g transform="translate(18.001 339.714)"><g transform="translate(-0.001 31.286)"><path class="b" d="M.992,35.991c3.252.006,7.932.15,11.183.088-.35.353-.7.711-1.032,1.079-.885.971.555,2.419,1.444,1.444.982-1.077,2.035-2.084,3.114-3.063a.919.919,0,0,0-.038-1.429,1.1,1.1,0,0,0-.271-.277c-1-.721-1.964-1.492-2.907-2.291-1-.845-2.45.592-1.444,1.444q.629.533,1.272,1.047c-3.3.069-8.024-.078-11.321-.084A1.021,1.021,0,0,0,.992,35.991Z" transform="translate(-0.004 -31.286)"/><path class="b" d="M15.032,203.859c-3.3.006-8.024.153-11.321.084q.642-.515,1.272-1.047c1.006-.852-.446-2.289-1.444-1.444-.943.8-1.9,1.569-2.907,2.291a1.1,1.1,0,0,0-.271.277.919.919,0,0,0-.038,1.429c1.079.979,2.131,1.986,3.114,3.063.889.975,2.329-.473,1.444-1.444-.336-.368-.682-.725-1.032-1.079,3.251.062,7.931-.082,11.183-.088A1.021,1.021,0,0,0,15.032,203.859Z" transform="translate(0.001 -195.07)"/></g></g></g></svg>